<svg id="Ebene_1" data-name="Ebene 1" xmlns="http://www.w3.org/2000/svg" viewBox="0 0 1443.72 1083.54"><defs><style>.cls-1{fill:red;}</style></defs><polygon points="589.62 78.29 522.61 11.26 146.46 387.41 146.46 9.19 51.68 9.19 51.68 1075.44 146.46 1075.44 146.46 521.45 589.62 78.29"/><polygon points="913.3 796.97 846.29 729.95 845.97 730.27 632.4 516.7 565.38 583.72 778.95 797.29 643.78 932.47 327.8 618.34 847.99 98.15 780.97 31.13 243.3 568.8 244.2 569.69 194.61 619.58 644.99 1067.32 711.8 1000.1 710.99 999.29 913.3 796.97"/><polygon points="1139.73 692.09 1139.57 692.25 832.22 384.9 1142.18 74.94 1075.16 7.92 697.43 385.65 764.45 452.67 765.2 451.92 1072.55 759.27 815.31 1016.51 882.33 1083.54 1206.75 759.12 1139.73 692.09"/><path d="M1596.22,8v3.14L1339.67,267.67l-.75-.75-67,67,.75.75-.75.75,67,67,.75-.75,256.55,256.55v416H1691V8ZM1406.69,334.69l189.53-189.53V524.22Z" transform="translate(-247.28 1.21)"/><polygon class="cls-1" points="537.94 70.37 470.93 3.34 94.78 379.5 94.78 1.27 0 1.27 0 1067.52 94.78 1067.52 94.78 513.53 537.94 70.37"/><polygon class="cls-1" points="861.62 789.05 794.61 722.03 794.29 722.35 580.72 508.78 513.7 575.8 727.27 789.37 592.09 924.55 276.12 610.42 796.31 90.23 729.29 23.21 191.62 560.88 192.51 561.77 142.93 611.66 593.3 1059.4 660.12 992.18 659.31 991.37 861.62 789.05"/><polygon class="cls-1" points="1088.05 684.17 1087.89 684.33 780.54 376.98 1090.5 67.02 1023.48 0 645.75 377.73 712.77 444.75 713.52 444 1020.87 751.35 763.63 1008.6 830.65 1075.62 1155.07 751.2 1088.05 684.17"/><path class="cls-1" d="M1544.54.07V3.19L1288,259.75l-.75-.75-67,67,.75.75-.75.75,67,67,.75-.75,256.55,256.55v416h94.78V.07ZM1355,326.77l189.53-189.54V516.3Z" transform="translate(-247.28 1.21)"/></svg>